<svg width="900" height="560" viewBox="0 0 900 560" fill="none" xmlns="http://www.w3.org/2000/svg">
  <rect width="900" height="560" rx="28" fill="#F8FAFA"/>
  <rect x="82" y="80" width="736" height="400" rx="34" fill="white" stroke="#DDE7E6" stroke-width="2"/>
  <path d="M140 402H760" stroke="#E4EBEA" stroke-width="3"/>
  <path d="M140 320H760" stroke="#E4EBEA" stroke-width="3"/>
  <path d="M140 238H760" stroke="#E4EBEA" stroke-width="3"/>
  <path d="M140 156H760" stroke="#E4EBEA" stroke-width="3"/>
  <path d="M166 352L248 332L319 366L413 258L500 290L606 184L724 216" stroke="#0F9D98" stroke-width="8" stroke-linecap="round" stroke-linejoin="round"/>
  <path d="M166 386L260 372L334 390L430 334L524 350L620 296L724 316" stroke="#9DDDD9" stroke-width="6" stroke-linecap="round" stroke-linejoin="round"/>
  <rect x="166" y="126" width="114" height="36" rx="12" fill="#EAF8F7"/>
  <rect x="300" y="126" width="86" height="36" rx="12" fill="#F3F6F6"/>
  <rect x="406" y="126" width="86" height="36" rx="12" fill="#F3F6F6"/>
  <circle cx="606" cy="184" r="13" fill="white" stroke="#0F9D98" stroke-width="6"/>
  <circle cx="413" cy="258" r="13" fill="white" stroke="#0F9D98" stroke-width="6"/>
</svg>
