<svg width="900" height="560" viewBox="0 0 900 560" fill="none" xmlns="http://www.w3.org/2000/svg">
  <rect width="900" height="560" rx="28" fill="#F7FAFA"/>
  <circle cx="450" cy="280" r="176" fill="white" stroke="#DDE7E6" stroke-width="2"/>
  <path d="M450 140L570 185V270C570 352 520 417 450 440C380 417 330 352 330 270V185L450 140Z" fill="#EAF8F7" stroke="#0F9D98" stroke-width="8"/>
  <path d="M395 284L433 322L510 235" stroke="#0F9D98" stroke-width="18" stroke-linecap="round" stroke-linejoin="round"/>
  <rect x="114" y="126" width="156" height="82" rx="22" fill="white" stroke="#DDE7E6" stroke-width="2"/>
  <rect x="630" y="126" width="156" height="82" rx="22" fill="white" stroke="#DDE7E6" stroke-width="2"/>
  <rect x="114" y="352" width="156" height="82" rx="22" fill="white" stroke="#DDE7E6" stroke-width="2"/>
  <rect x="630" y="352" width="156" height="82" rx="22" fill="white" stroke="#DDE7E6" stroke-width="2"/>
  <path d="M270 167H330" stroke="#A9DFDC" stroke-width="5" stroke-linecap="round"/>
  <path d="M570 167H630" stroke="#A9DFDC" stroke-width="5" stroke-linecap="round"/>
  <path d="M270 393H330" stroke="#A9DFDC" stroke-width="5" stroke-linecap="round"/>
  <path d="M570 393H630" stroke="#A9DFDC" stroke-width="5" stroke-linecap="round"/>
</svg>
